<?xml version="1.0" encoding="UTF-8"?>
<!--
Font Awesome Free 5.1.1 by @fontawesome - https://fontawesome.com
License - https://fontawesome.com/license (Icons: CC BY 4.0, Fonts: SIL OFL 1.1, Code: MIT License)
-->
<svg xmlns="http://www.w3.org/2000/svg" style="display: none;">
 <symbol id="angle-down" viewBox="0 0 448 512">
    <title id="angle-down-title">angle-down</title>
    <path fill="#ffd700" d="M201.4 374.6c12.5 12.5 32.8 12.5 45.3 0l160-160c12.5-12.5 12.5-32.8 0-45.3s-32.8-12.5-45.3 0L224 306.7 86.6 169.4c-12.5-12.5-32.8-12.5-45.3 0s-12.5 32.8 0 45.3l160 160z"></path>
  </symbol>
 <symbol id="save" viewBox="0 0 448 512">
    <title id="save-title">save</title>
    <path fill="#ffd700" d="M48 96l0 320c0 8.8 7.2 16 16 16l320 0c8.8 0 16-7.2 16-16l0-245.5c0-4.2-1.7-8.3-4.7-11.3l33.9-33.9c12 12 18.7 28.3 18.7 45.3L448 416c0 35.3-28.7 64-64 64L64 480c-35.3 0-64-28.7-64-64L0 96C0 60.7 28.7 32 64 32l245.5 0c17 0 33.3 6.7 45.3 18.7l74.5 74.5-33.9 33.9L320.8 84.7c-.3-.3-.5-.5-.8-.8L320 184c0 13.3-10.7 24-24 24l-192 0c-13.3 0-24-10.7-24-24L80 80 64 80c-8.8 0-16 7.2-16 16zm80-16l0 80 144 0 0-80L128 80zm32 240a64 64 0 1 1 128 0 64 64 0 1 1 -128 0z"></path>
  </symbol>
 <symbol id="arrow-left" viewBox="0 0 448 512">
    <title id="arrow-left-title">arrow-left</title>
    <path fill="#ffd700" d="M9.4 233.4c-12.5 12.5-12.5 32.8 0 45.3l160 160c12.5 12.5 32.8 12.5 45.3 0s12.5-32.8 0-45.3L109.2 288 416 288c17.7 0 32-14.3 32-32s-14.3-32-32-32l-306.7 0L214.6 118.6c12.5-12.5 12.5-32.8 0-45.3s-32.8-12.5-45.3 0l-160 160z"></path>
  </symbol>
 <symbol id="file-export" viewBox="0 0 576 512">
    <title id="file-export-title">file-export</title>
    <path fill="#ffd700" d="M0 64C0 28.7 28.7 0 64 0L224 0l0 128c0 17.7 14.3 32 32 32l128 0 0 128-168 0c-13.3 0-24 10.7-24 24s10.7 24 24 24l168 0 0 112c0 35.3-28.7 64-64 64L64 512c-35.3 0-64-28.7-64-64L0 64zM384 336l0-48 110.1 0-39-39c-9.4-9.4-9.4-24.6 0-33.9s24.6-9.4 33.9 0l80 80c9.4 9.4 9.4 24.6 0 33.9l-80 80c-9.4 9.4-24.6 9.4-33.9 0s-9.4-24.6 0-33.9l39-39L384 336zm0-208l-128 0L256 0 384 128z"></path>
  </symbol>
 <symbol id="file-import" viewBox="0 0 512 512">
    <title id="file-import-title">file-import</title>
    <path fill="#ffd700" d="M128 64c0-35.3 28.7-64 64-64L352 0l0 128c0 17.7 14.3 32 32 32l128 0 0 288c0 35.3-28.7 64-64 64l-256 0c-35.3 0-64-28.7-64-64l0-112 174.1 0-39 39c-9.4 9.4-9.4 24.6 0 33.9s24.6 9.4 33.9 0l80-80c9.4-9.4 9.4-24.6 0-33.9l-80-80c-9.4-9.4-24.6-9.4-33.9 0s-9.4 24.6 0 33.9l39 39L128 288l0-224zm0 224l0 48L24 336c-13.3 0-24-10.7-24-24s10.7-24 24-24l104 0zM512 128l-128 0L384 0 512 128z"></path>
  </symbol>
 <symbol id="trash" viewBox="0 0 448 512">
    <title id="trash-title">trash</title>
    <g transform="translate(33.6, 38.4) scale(0.85)">
    <path fill="#ffd700" d="M135.2 17.7L128 32 32 32C14.3 32 0 46.3 0 64S14.3 96 32 96l384 0c17.7 0 32-14.3 32-32s-14.3-32-32-32l-96 0-7.2-14.3C307.4 6.8 296.3 0 284.2 0L163.8 0c-12.1 0-23.2 6.8-28.6 17.7zM416 128L32 128 53.2 467c1.6 25.3 22.6 45 47.9 45l245.8 0c25.3 0 46.3-19.7 47.9-45L416 128z"></path>
    </g>
  </symbol>

 <symbol id="plus" viewBox="0 0 448 512">
    <title id="plus-title">plus</title>
    <path fill="#ffd700" d="M256 80c0-17.7-14.3-32-32-32s-32 14.3-32 32l0 144L48 224c-17.7 0-32 14.3-32 32s14.3 32 32 32l144 0 0 144c0 17.7 14.3 32 32 32s32-14.3 32-32l0-144 144 0c17.7 0 32-14.3 32-32s-14.3-32-32-32l-144 0 0-144z"></path>
  </symbol>
 <symbol id="external-link-alt" viewBox="0 0 512 512">
    <title id="external-link-alt-title">external-link-alt</title>
    <path fill="#ffd700" d="M352 0c-12.9 0-24.6 7.8-29.6 19.8s-2.2 25.7 6.9 34.9L370.7 96 201.4 265.4c-12.5 12.5-12.5 32.8 0 45.3s32.8 12.5 45.3 0L416 141.3l41.4 41.4c9.2 9.2 22.9 11.9 34.9 6.9s19.8-16.6 19.8-29.6l0-128c0-17.7-14.3-32-32-32L352 0zM80 32C35.8 32 0 67.8 0 112L0 432c0 44.2 35.8 80 80 80l320 0c44.2 0 80-35.8 80-80l0-112c0-17.7-14.3-32-32-32s-32 14.3-32 32l0 112c0 8.8-7.2 16-16 16L80 448c-8.8 0-16-7.2-16-16l0-320c0-8.8 7.2-16 16-16l112 0c17.7 0 32-14.3 32-32s-14.3-32-32-32L80 32z"></path>
  </symbol>

<symbol id="exclamation-triangle" viewBox="0 0 512 512">
    <title id="exclamation-triangle-title">exclamation-triangle</title>
    <path d="M256 32c14.2 0 27.3 7.5 34.5 19.8l216 368c7.3 12.4 7.3 27.7 .2 40.1S486.3 480 472 480L40 480c-14.3 0-27.6-7.7-34.7-20.1s-7-27.8 .2-40.1l216-368C228.7 39.5 241.8 32 256 32zm0 128c-13.3 0-24 10.7-24 24l0 112c0 13.3 10.7 24 24 24s24-10.7 24-24l0-112c0-13.3-10.7-24-24-24zm32 224a32 32 0 1 0 -64 0 32 32 0 1 0 64 0z"></path>
  </symbol>
<symbol id="circle-info" viewBox="0 0 512 512">
    <title id="circle-info-title">circle-info</title>
    <path fill="#ffd700" d="M256 512A256 256 0 1 0 256 0a256 256 0 1 0 0 512zM216 336l24 0 0-64-24 0c-13.3 0-24-10.7-24-24s10.7-24 24-24l48 0c13.3 0 24 10.7 24 24l0 88 8 0c13.3 0 24 10.7 24 24s-10.7 24-24 24l-80 0c-13.3 0-24-10.7-24-24s10.7-24 24-24zm40-208a32 32 0 1 1 0 64 32 32 0 1 1 0-64z"></path>
  </symbol>
<symbol id="search" viewBox="0 0 512 512">
    <title id="search-title">search</title>
    <path fill="#ffd700" d="M416 208c0 45.9-14.9 88.3-40 122.7L502.6 457.4c12.5 12.5 12.5 32.8 0 45.3s-32.8 12.5-45.3 0L330.7 376c-34.4 25.2-76.8 40-122.7 40C93.1 416 0 322.9 0 208S93.1 0 208 0S416 93.1 416 208zM208 352a144 144 0 1 0 0-288 144 144 0 1 0 0 288z"></path>
  </symbol>
<symbol id="brush" viewBox="0 0 384 512">
    <title id="brush-title">brush</title>
    <path fill="#ffd700" d="M162.4 6c-1.5-3.6-5-6-8.9-6l-19 0c-3.9 0-7.5 2.4-8.9 6L104.9 57.7c-3.2 8-14.6 8-17.8 0L66.4 6c-1.5-3.6-5-6-8.9-6L48 0C21.5 0 0 21.5 0 48L0 224l0 22.4L0 256l9.6 0 364.8 0 9.6 0 0-9.6 0-22.4 0-176c0-26.5-21.5-48-48-48L230.5 0c-3.9 0-7.5 2.4-8.9 6L200.9 57.7c-3.2 8-14.6 8-17.8 0L162.4 6zM0 288l0 32c0 35.3 28.7 64 64 64l64 0 0 64c0 35.3 28.7 64 64 64s64-28.7 64-64l0-64 64 0c35.3 0 64-28.7 64-64l0-32L0 288zM192 432a16 16 0 1 1 0 32 16 16 0 1 1 0-32z"></path>
  </symbol>
<symbol id="eject" viewBox="0 0 448 512">
    <title id="eject-title">eject</title>
    <path fill="#ffd700" d="M224 32c13.5 0 26.3 5.6 35.4 15.6l176 192c12.9 14 16.2 34.3 8.6 51.8S419 320 400 320L48 320c-19 0-36.3-11.2-43.9-28.7s-4.3-37.7 8.6-51.8l176-192C197.7 37.6 210.5 32 224 32zM0 432c0-26.5 21.5-48 48-48l352 0c26.5 0 48 21.5 48 48s-21.5 48-48 48L48 480c-26.5 0-48-21.5-48-48z"></path>
  </symbol>
<symbol id="play" viewBox="0 0 384 512">
    <title id="play-title">play</title>
    <path fill="#ffd700" d="M73 39c-14.8-9.1-33.4-9.4-48.5-.9S0 62.6 0 80L0 432c0 17.4 9.4 33.4 24.5 41.9s33.7 8.1 48.5-.9L361 297c14.3-8.7 23-24.2 23-41s-8.7-32.2-23-41L73 39z"></path>
  </symbol>
<symbol id="eye" viewBox="0 0 576 512">
    <title id="eye-title">eye</title>
    <path fill="#ffd700" d="M288 32c-80.8 0-145.5 36.8-192.6 80.6C48.6 156 17.3 208 2.5 243.7c-3.3 7.9-3.3 16.7 0 24.6C17.3 304 48.6 356 95.4 399.4C142.5 443.2 207.2 480 288 480s145.5-36.8 192.6-80.6c46.8-43.5 78.1-95.4 93-131.1c3.3-7.9 3.3-16.7 0-24.6c-14.9-35.7-46.2-87.7-93-131.1C433.5 68.8 368.8 32 288 32zM144 256a144 144 0 1 1 288 0 144 144 0 1 1 -288 0zm144-64c0 35.3-28.7 64-64 64c-7.1 0-13.9-1.2-20.3-3.3c-5.5-1.8-11.9 1.6-11.7 7.4c.3 6.9 1.3 13.8 3.2 20.7c13.7 51.2 66.4 81.6 117.6 67.9s81.6-66.4 67.9-117.6c-11.1-41.5-47.8-69.4-88.6-71.1c-5.8-.2-9.2 6.1-7.4 11.7c2.1 6.4 3.3 13.2 3.3 20.3z"></path>
  </symbol>
<symbol id="set" viewBox="0 0 448 512">
    <title id="set-title">set</title>
    <path fill="#ffd700" d="M0 96C0 78.3 14.3 64 32 64l384 0c17.7 0 32 14.3 32 32s-14.3 32-32 32L32 128C14.3 128 0 113.7 0 96zM0 256c0-17.7 14.3-32 32-32l384 0c17.7 0 32 14.3 32 32s-14.3 32-32 32L32 288c-17.7 0-32-14.3-32-32zM448 416c0 17.7-14.3 32-32 32L32 448c-17.7 0-32-14.3-32-32s14.3-32 32-32l384 0c17.7 0 32 14.3 32 32z"></path>
  </symbol>
 <symbol id="ellipsisv" viewBox="0 0 448 512">
    <title id="ellipsisv-title">ellipsisv</title>
    <path d="M8 256a56 56 0 1 1 112 0A56 56 0 1 1 8 256zm160 0a56 56 0 1 1 112 0 56 56 0 1 1 -112 0zm216-56a56 56 0 1 1 0 112 56 56 0 1 1 0-112z"></path>
  </symbol>

<symbol id="clock" viewBox="0 0 512 512">
    <title id="clock-title">clock</title>
    <path fill="#ffd700" d="M256 0a256 256 0 1 1 0 512A256 256 0 1 1 256 0zM232 120l0 136c0 8 4 15.5 10.7 20l96 64c11 7.4 25.9 4.4 33.3-6.7s4.4-25.9-6.7-33.3L280 243.2 280 120c0-13.3-10.7-24-24-24s-24 10.7-24 24z"></path>
  </symbol>
<symbol id="circle-info" viewBox="0 0 512 512">
    <path fill="#808080" d="M256 0c141.4 0 256 114.6 256 256S397.4 512 256 512 0 397.4 0 256 114.6 0 256 0zM216 184c0-13.3 10.7-24 24-24h48c13.3 0 24 10.7 24 24v16c0 13.3-10.7 24-24 24h-48c-13.3 0-24-10.7-24-24V184zm0 80c0-13.3 10.7-24 24-24h48c13.3 0 24 10.7 24 24v112c0 13.3-10.7 24-24 24h-48c-13.3 0-24-10.7-24-24V264z"/>
</symbol>
<symbol id="pen" viewBox="0 0 640 640">
    <title id="pen-title">pen</title>
    <path fill="#ffd700" d="M535.6 85.7C513.7 63.8 478.3 63.8 456.4 85.7L432 110.1L529.9 208L554.3 183.6C576.2 161.7 576.2 126.3 554.3 104.4L535.6 85.7zM236.4 305.7C230.3 311.8 225.6 319.3 222.9 327.6L193.3 416.4C190.4 425 192.7 434.5 199.1 441C205.5 447.5 215 449.7 223.7 446.8L312.5 417.2C320.7 414.5 328.2 409.8 334.4 403.7L496 241.9L398.1 144L236.4 305.7zM160 128C107 128 64 171 64 224L64 480C64 533 107 576 160 576L416 576C469 576 512 533 512 480L512 384C512 366.3 497.7 352 480 352C462.3 352 448 366.3 448 384L448 480C448 497.7 433.7 512 416 512L160 512C142.3 512 128 497.7 128 480L128 224C128 206.3 142.3 192 160 192L256 192C273.7 192 288 177.7 288 160C288 142.3 273.7 128 256 128L160 128z"/>
</symbol>

<symbol id="globe" viewBox="0 0 640 640">
    <title id="globe-title">globe</title>
    <path fill="#ffd700" d="M415.9 344L225 344C227.9 408.5 242.2 467.9 262.5 511.4C273.9 535.9 286.2 553.2 297.6 563.8C308.8 574.3 316.5 576 320.5 576C324.5 576 332.2 574.3 343.4 563.8C354.8 553.2 367.1 535.8 378.5 511.4C398.8 467.9 413.1 408.5 416 344zM224.9 296L415.8 296C413 231.5 398.7 172.1 378.4 128.6C367 104.2 354.7 86.8 343.3 76.2C332.1 65.7 324.4 64 320.4 64C316.4 64 308.7 65.7 297.5 76.2C286.1 86.8 273.8 104.2 262.4 128.6C242.1 172.1 227.8 231.5 224.9 296zM176.9 296C180.4 210.4 202.5 130.9 234.8 78.7C142.7 111.3 74.9 195.2 65.5 296L176.9 296zM65.5 344C74.9 444.8 142.7 528.7 234.8 561.3C202.5 509.1 180.4 429.6 176.9 344L65.5 344zM463.9 344C460.4 429.6 438.3 509.1 406 561.3C498.1 528.6 565.9 444.8 575.3 344L463.9 344zM575.3 296C565.9 195.2 498.1 111.3 406 78.7C438.3 130.9 460.4 210.4 463.9 296L575.3 296z"/>
</symbol>

<symbol id="book" viewBox="0 0 640 640">
    <title id="book-title">book</title>
    <path fill="#ffd700" d="M480 576L192 576C139 576 96 533 96 480L96 160C96 107 139 64 192 64L496 64C522.5 64 544 85.5 544 112L544 400C544 420.9 530.6 438.7 512 445.3L512 512C529.7 512 544 526.3 544 544C544 561.7 529.7 576 512 576L480 576zM192 448C174.3 448 160 462.3 160 480C160 497.7 174.3 512 192 512L448 512L448 448L192 448zM224 216C224 229.3 234.7 240 248 240L424 240C437.3 240 448 229.3 448 216C448 202.7 437.3 192 424 192L248 192C234.7 192 224 202.7 224 216zM248 288C234.7 288 224 298.7 224 312C224 325.3 234.7 336 248 336L424 336C437.3 336 448 325.3 448 312C448 298.7 437.3 288 424 288L248 288z"/>
</symbol>

<symbol id="support" viewBox="0 0 640 640">
    <title id="support-title">support</title>
    <path fill="#ffd700" d="M320 128C241 128 175.3 185.3 162.3 260.7C171.6 257.7 181.6 256 192 256L208 256C234.5 256 256 277.5 256 304L256 400C256 426.5 234.5 448 208 448L192 448C139 448 96 405 96 352L96 288C96 164.3 196.3 64 320 64C443.7 64 544 164.3 544 288L544 456.1C544 522.4 490.2 576.1 423.9 576.1L336 576L304 576C277.5 576 256 554.5 256 528C256 501.5 277.5 480 304 480L336 480C362.5 480 384 501.5 384 528L384 528L424 528C463.8 528 496 495.8 496 456L496 435.1C481.9 443.3 465.5 447.9 448 447.9L432 447.9C405.5 447.9 384 426.4 384 399.9L384 303.9C384 277.4 405.5 255.9 432 255.9L448 255.9C458.4 255.9 468.3 257.5 477.7 260.6C464.7 185.3 399.1 127.9 320 127.9z"/>
</symbol>

<symbol id="code" viewBox="0 0 640 640">
    <title id="code-title">code</title>
    <path fill="#ffd700" d="M392.8 65.2C375.8 60.3 358.1 70.2 353.2 87.2L225.2 535.2C220.3 552.2 230.2 569.9 247.2 574.8C264.2 579.7 281.9 569.8 286.8 552.8L414.8 104.8C419.7 87.8 409.8 70.1 392.8 65.2zM457.4 201.3C444.9 213.8 444.9 234.1 457.4 246.6L530.8 320L457.4 393.4C444.9 405.9 444.9 426.2 457.4 438.7C469.9 451.2 490.2 451.2 502.7 438.7L598.7 342.7C611.2 330.2 611.2 309.9 598.7 297.4L502.7 201.4C490.2 188.9 469.9 188.9 457.4 201.4zM182.7 201.3C170.2 188.8 149.9 188.8 137.4 201.3L41.4 297.3C28.9 309.8 28.9 330.1 41.4 342.6L137.4 438.6C149.9 451.1 170.2 451.1 182.7 438.6C195.2 426.1 195.2 405.8 182.7 393.3L109.3 320L182.6 246.6C195.1 234.1 195.1 213.8 182.6 201.3z"/>
</symbol>



</svg>